<?xml version="1.0" encoding="UTF-8" standalone="no"?>
<!-- Created with Inkscape (http://www.inkscape.org/) -->

<svg
   width="48"
   height="48"
   viewBox="0 0 48 48"
   version="1.1"
   id="svg1"
   inkscape:version="1.3.2 (091e20e, 2023-11-25)"
   sodipodi:docname="budget.svg"
   xmlns:inkscape="http://www.inkscape.org/namespaces/inkscape"
   xmlns:sodipodi="http://sodipodi.sourceforge.net/DTD/sodipodi-0.dtd"
   xmlns="http://www.w3.org/2000/svg"
   xmlns:svg="http://www.w3.org/2000/svg">
  <sodipodi:namedview
     id="namedview1"
     pagecolor="#ffffff"
     bordercolor="#000000"
     borderopacity="0.25"
     inkscape:showpageshadow="2"
     inkscape:pageopacity="0.0"
     inkscape:pagecheckerboard="0"
     inkscape:deskcolor="#d1d1d1"
     inkscape:document-units="px"
     inkscape:zoom="4.9166667"
     inkscape:cx="24"
     inkscape:cy="24"
     inkscape:window-width="1472"
     inkscape:window-height="429"
     inkscape:window-x="0"
     inkscape:window-y="38"
     inkscape:window-maximized="0"
     inkscape:current-layer="layer1" />
  <defs
     id="defs1" />
  <g
     inkscape:label="Calque 1"
     inkscape:groupmode="layer"
     id="layer1">
    <path
       d="m 17.25265,15.910353 h 15.036865 c 6.88959,2.836291 12.471773,12.362163 12.471773,21.311737 0,3.058901 -0.682518,5.212674 -2.085974,6.58675 -2.605771,2.556053 -7.770987,2.455483 -13.747539,2.336833 -1.341305,-0.02712 -2.730071,-0.05424 -4.156127,-0.05424 -1.846415,0 -3.617119,0.06441 -5.326805,0.124301 C 13.92707,46.412352 9.1618738,46.584112 6.7583709,44.26536 5.4272349,42.980553 4.7808768,40.910399 4.7808768,37.933987 c 0,-10.12477 6.4206412,-19.503742 12.4717732,-22.023634 z M 3.1017018,37.933987 c 0,3.456661 0.8135975,5.921183 2.4916426,7.539338 2.1673336,2.090493 5.5347236,2.527802 9.5405616,2.526673 1.388765,0 2.852112,-0.05198 4.369698,-0.106219 1.697254,-0.06102 3.452139,-0.123171 5.268044,-0.123171 1.409106,0 2.787701,0.02712 4.123357,0.05311 6.356232,0.12543 11.844625,0.233909 14.956636,-2.814822 1.741325,-1.708555 2.588822,-4.253308 2.588822,-7.786807 0,-8.407175 -5.230754,-19.571541 -13.678609,-22.927632 -0.09718,-0.0452 -0.2034,-0.0565 -0.309619,-0.0565 H 17.08993 c -0.10622,0 -0.212439,0.0113 -0.311879,0.0565 C 8.5968754,17.537548 3.1017018,29.142613 3.1017018,37.933987"
       style="fill:#000000;fill-opacity:1;fill-rule:nonzero;stroke:none;stroke-width:0.112999"
       id="path488" />
    <path
       d="M 34.07943,1.6836951 C 33.889591,4.7572859 32.711004,8.8591737 30.886059,11.028767 H 18.479826 C 16.654881,8.8591737 15.474035,4.7572859 15.286456,1.6836951 Z M 18.102407,12.712463 h 13.161071 c 0.23165,0 0.454259,-0.1017 0.613589,-0.2712 C 34.324639,9.8309708 35.785725,4.4973867 35.785725,0.84749746 35.785725,0.3841989 35.410566,0 34.946138,0 h -20.52752 c -0.463299,0 -0.838457,0.3841989 -0.838457,0.84749746 0,3.64988924 1.461086,8.98347334 3.910918,11.59376554 0.157069,0.1695 0.379679,0.2712 0.611328,0.2712"
       style="fill:#000000;fill-opacity:1;fill-rule:nonzero;stroke:none;stroke-width:0.112999"
       id="path490" />
    <path
       d="m 20.523991,35.357595 c 0.487027,0.2034 1.132257,0.429399 1.824944,0.564999 1.754885,0.361598 4.522247,0.203399 4.950515,-1.694995 0.505108,-2.237394 -1.624935,-2.847592 -2.769622,-3.175291 -1.368425,-0.395498 -4.014878,-1.604595 -4.222797,-3.36739 -0.264419,-2.248693 0.832807,-3.54819 3.4544,-4.101887 0.388718,-0.0904 0.666697,-0.4294 0.666697,-0.824898 v -1.728895 h 0.891568 v 1.412495 c 0,0.440699 0.337869,0.802298 0.774048,0.836198 0.786478,0.0565 1.971843,0.237299 2.724422,0.485898 l -0.27685,1.220397 c -0.933377,-0.248599 -2.434012,-0.576299 -3.626159,-0.497198 -1.083667,0.0791 -1.899524,0.689297 -2.128913,1.593295 -0.24295,0.960497 0.211308,1.988793 1.127737,2.576392 1.012476,0.644099 2.313103,1.163897 3.261169,1.536796 0.42149,0.1695 0.819248,0.327699 1.004568,0.429398 0.280239,0.1469 1.666745,1.005697 1.456565,3.25439 -0.19662,2.067894 -1.959414,3.333491 -3.51994,3.45779 -0.437308,0.0339 -0.772917,0.406799 -0.770657,0.847497 l 0.009,1.815906 h -0.887049 v -1.612506 c 0,-0.451999 -0.351429,-0.813598 -0.796647,-0.836197 -0.644099,-0.0339 -2.366213,-0.237299 -3.610339,-0.768398 z m -1.922125,2.565093 c 1.272376,0.779698 3.135741,1.104006 4.186638,1.228306 v 1.685955 c 0,0.465559 0.375158,0.840718 0.838458,0.840718 h 2.570742 c 0.222608,0 0.439568,-0.08814 0.596638,-0.24747 0.155939,-0.158199 0.244079,-0.372899 0.244079,-0.595507 l -0.01017,-1.950375 c 2.014784,-0.487028 4.031828,-2.204624 4.279297,-4.848815 v 0 c 0.310749,-3.322191 -1.896134,-4.666887 -2.342484,-4.904186 -0.264419,-0.135599 -0.664437,-0.293799 -1.169546,-0.497199 -0.884786,-0.350299 -2.100663,-0.836198 -2.97754,-1.401196 -0.334479,-0.203398 -0.458779,-0.531098 -0.405669,-0.734497 0.06667,-0.2599 0.414709,-0.316399 0.618107,-0.327699 1.509676,-0.113 3.846509,0.655398 3.869109,0.666697 0.224869,0.0791 0.472339,0.0452 0.676869,-0.0678 0.207918,-0.113 0.355949,-0.316399 0.406798,-0.542399 l 0.622628,-2.768492 c 0.07684,-0.338999 -0.07119,-0.700597 -0.369509,-0.892697 -0.801167,-0.508499 -2.292763,-0.768397 -3.23744,-0.881397 v -1.502896 c 0,-0.463298 -0.375159,-0.836197 -0.840718,-0.836197 h -2.570742 c -0.464428,0 -0.839587,0.372899 -0.839587,0.836197 v 1.920994 c -2.994492,0.847497 -4.451057,2.881492 -4.108668,5.774284 0.375158,3.18659 4.590046,4.542587 5.428504,4.791186 1.750364,0.497198 1.687085,0.779697 1.596685,1.186496 -0.09944,0.429398 -1.558266,0.711897 -2.975282,0.429398 C 21.487877,34.035499 20.422291,33.4705 20.41325,33.459199 20.195161,33.3462 19.931871,33.3236 19.700223,33.413999 c -0.23165,0.101701 -0.40793,0.293799 -0.485899,0.531098 l -0.968407,3.00579 c -0.11865,0.361599 0.02825,0.768398 0.355949,0.971797"
       style="fill:#000000;fill-opacity:1;fill-rule:nonzero;stroke:none;stroke-width:0.112999"
       id="path492" />
  </g>
</svg>
