<?xml version="1.0" encoding="UTF-8" standalone="no"?>
<!-- Created with Inkscape (http://www.inkscape.org/) -->

<svg
   width="48"
   height="48"
   viewBox="0 0 48 48"
   version="1.1"
   id="svg1"
   inkscape:version="1.3.2 (091e20e, 2023-11-25)"
   sodipodi:docname="date.svg"
   xmlns:inkscape="http://www.inkscape.org/namespaces/inkscape"
   xmlns:sodipodi="http://sodipodi.sourceforge.net/DTD/sodipodi-0.dtd"
   xmlns="http://www.w3.org/2000/svg"
   xmlns:svg="http://www.w3.org/2000/svg">
  <sodipodi:namedview
     id="namedview1"
     pagecolor="#ffffff"
     bordercolor="#000000"
     borderopacity="0.25"
     inkscape:showpageshadow="2"
     inkscape:pageopacity="0.0"
     inkscape:pagecheckerboard="0"
     inkscape:deskcolor="#d1d1d1"
     inkscape:document-units="px"
     inkscape:zoom="4.9166667"
     inkscape:cx="24"
     inkscape:cy="24"
     inkscape:window-width="1472"
     inkscape:window-height="429"
     inkscape:window-x="0"
     inkscape:window-y="38"
     inkscape:window-maximized="0"
     inkscape:current-layer="layer1" />
  <defs
     id="defs1" />
  <g
     inkscape:label="Calque 1"
     inkscape:groupmode="layer"
     id="layer1">
    <path
       d="m 14.740673,27.087999 c 0.733333,-0.044 1.261333,-0.102667 1.606667,-0.181334 0.733333,-0.161333 1.342666,-0.494666 1.809333,-0.989333 0.328,-0.345333 0.576,-0.804 0.741333,-1.366666 0.02133,-0.07733 0.04133,-0.150667 0.05733,-0.22 h 1.42 v 14.685332 h -1.764 V 28.661332 c 0,-0.313333 -0.254667,-0.566667 -0.568,-0.566667 h -3.302667 z m -0.565333,2.14 h 3.301333 v 10.354666 c 0,0.313333 0.254667,0.568 0.566667,0.568 h 2.9 c 0.312,0 0.566666,-0.254667 0.566666,-0.568 V 23.763999 c 0,-0.313333 -0.254666,-0.566667 -0.566666,-0.566667 h -2.470667 c -0.313333,0 -0.568,0.253334 -0.568,0.566667 0,0.03067 -0.0053,0.156 -0.09733,0.472 -0.112,0.385333 -0.270667,0.688 -0.473334,0.901333 -0.316,0.332 -0.716,0.549333 -1.232,0.662667 -0.357333,0.08 -1.013333,0.141333 -1.953333,0.184 -0.302667,0.01333 -0.54,0.262666 -0.54,0.565333 v 2.112 c 0,0.313333 0.253333,0.566667 0.566667,0.566667"
       style="fill:#000000;fill-opacity:1;fill-rule:nonzero;stroke:none;stroke-width:0.133333"
       id="path574" />
    <path
       d="m 26.263339,35.650665 c 0.16,0.568 0.409334,1.032 0.745334,1.384 0.457333,0.482667 1.106666,0.726667 1.929333,0.726667 0.953333,0 1.694667,-0.349333 2.209333,-1.04 0.473334,-0.638667 0.713334,-1.437333 0.713334,-2.378667 0,-0.916 -0.222667,-1.709333 -0.661334,-2.357333 -0.486666,-0.718667 -1.237333,-1.081333 -2.228,-1.081333 -0.434666,0 -0.825333,0.05733 -1.169333,0.174666 -0.505333,0.181334 -0.912,0.490667 -1.213333,0.921334 l -2.182667,-0.092 0.52,-7.606667 h 7.374667 v 1.497333 h -5.12 c -0.294667,0 -0.54,0.228 -0.564,0.522667 l -0.282667,3.449333 c -0.01867,0.216 0.088,0.422667 0.274667,0.533334 0.185333,0.110666 0.42,0.105333 0.6,-0.012 0.545333,-0.358667 0.850666,-0.505334 1.006666,-0.564 0.381334,-0.142667 0.868,-0.213334 1.444,-0.213334 1.169334,0 2.16,0.381334 3.030667,1.169334 0.854667,0.772 1.268,1.888 1.268,3.409333 0,1.334667 -0.416,2.494667 -1.273333,3.546667 -0.830667,1.017333 -2.06,1.511999 -3.757334,1.511999 -1.374666,0 -2.465333,-0.353333 -3.332,-1.075999 -0.714666,-0.597334 -1.153333,-1.394667 -1.333333,-2.425334 z m -1.396,3.294667 c 1.065334,0.889333 2.430667,1.34 4.06,1.34 2.030667,0 3.590667,-0.648 4.637334,-1.928 1.013333,-1.245333 1.529333,-2.68 1.529333,-4.264 0,-1.834667 -0.553333,-3.265333 -1.642667,-4.250667 -1.073333,-0.970666 -2.349333,-1.462666 -3.792,-1.462666 -0.721333,0 -1.322666,0.09333 -1.842666,0.285333 -0.08267,0.032 -0.170667,0.07067 -0.264,0.114667 l 0.150666,-1.846667 h 5.165334 c 0.313333,0 0.566666,-0.253333 0.566666,-0.566667 v -2.631999 c 0,-0.313334 -0.253333,-0.566667 -0.566666,-0.566667 h -8.472 c -0.298667,0 -0.546667,0.230667 -0.565334,0.528 l -0.597333,8.714666 c -0.0093,0.153334 0.044,0.304 0.145333,0.417334 0.101334,0.114666 0.245334,0.182666 0.4,0.189333 l 3.096,0.129333 c 0.217334,0.01333 0.424,-0.109333 0.525334,-0.305333 0.178666,-0.342667 0.436,-0.570667 0.776,-0.692 0.217333,-0.07467 0.484,-0.112 0.794666,-0.112 0.609334,0 1.018667,0.185333 1.289334,0.584 0.309333,0.456 0.466666,1.034667 0.466666,1.721333 0,0.692 -0.164,1.264 -0.490666,1.702667 -0.296,0.397333 -0.708,0.582667 -1.298667,0.582667 -0.506667,0 -0.869333,-0.122667 -1.108,-0.374667 -0.266667,-0.281333 -0.456,-0.709333 -0.558667,-1.272 -0.04933,-0.269333 -0.284,-0.465333 -0.557333,-0.465333 h -3.092 c -0.157333,0 -0.306667,0.06533 -0.413333,0.181333 -0.109334,0.114667 -0.162667,0.269333 -0.150667,0.426667 0.118667,1.630666 0.729333,2.916 1.809333,3.821333"
       style="fill:#000000;fill-opacity:1;fill-rule:nonzero;stroke:none;stroke-width:0.133333"
       id="path576" />
    <path
       d="m 44.560672,42.933332 c 0,1.722666 -1.401333,3.122666 -3.122666,3.122666 H 7.26334 c -1.721333,0 -3.122667,-1.4 -3.122667,-3.122666 V 12.203999 c 0,-1.721333 1.401334,-3.1226664 3.122667,-3.1226664 h 0.541333 v 1.6653334 c 0,2.149333 1.748,3.897333 3.896,3.897333 2.148,0 3.897333,-1.748 3.897333,-3.897333 V 9.0813326 h 17.504 v 1.6653334 c 0,2.149333 1.746667,3.897333 3.897333,3.897333 2.149333,0 3.897333,-1.748 3.897333,-3.897333 V 9.0813326 h 0.541334 c 1.721333,0 3.122666,1.4013334 3.122666,3.1226664 z M 10.506006,2.7986661 c 0,-0.6786667 0.554667,-1.2306667 1.230667,-1.2306667 0.68,0 1.232,0.552 1.232,1.2306667 v 8.4253329 c 0,0.678667 -0.552,1.230667 -1.232,1.230667 -0.676,0 -1.230667,-0.552 -1.230667,-1.230667 z m 25.170667,0 c 0,-0.6786667 0.551999,-1.2306667 1.230666,-1.2306667 0.678667,0 1.230667,0.552 1.230667,1.2306667 v 8.4253329 c 0,0.678667 -0.552,1.230667 -1.230667,1.230667 -0.678667,0 -1.230666,-0.552 -1.230666,-1.230667 z m 5.761333,4.5813332 h -1.392 c -0.121334,0 -0.236,0.026667 -0.34,0.072 V 2.7986661 C 39.706006,1.2559994 38.451339,-5.3949998e-7 36.907339,-5.3949998e-7 35.364673,-5.3949998e-7 34.108673,1.2559994 34.108673,2.7986661 v 4.5973332 c -0.05067,-0.00933 -0.102667,-0.016 -0.154667,-0.016 H 14.74734 c -0.072,0 -0.142667,0.012 -0.210667,0.029333 V 2.7986661 c 0,-1.5426667 -1.254667,-2.79866663949998 -2.8,-2.79866663949998 -1.544,0 -2.798666,1.25599993949998 -2.798666,2.79866663949998 v 4.6333332 c -0.08933,-0.030667 -0.182667,-0.052 -0.284,-0.052 H 7.26334 c -2.658667,0 -4.822667,2.1653333 -4.822667,4.8239997 v 30.729333 c 0,2.66 2.164,4.824 4.822667,4.824 h 34.174666 c 2.658666,0 4.822666,-2.164 4.822666,-4.824 V 12.203999 c 0,-2.6586664 -2.164,-4.8239997 -4.822666,-4.8239997"
       style="fill:#000000;fill-opacity:1;fill-rule:nonzero;stroke:none;stroke-width:0.133333"
       id="path578" />
    <path
       d="m 41.234006,41.354665 c 0,0.676 -0.549334,1.225333 -1.224,1.225333 H 8.836673 c -0.674666,0 -1.225333,-0.549333 -1.225333,-1.225333 V 21.329332 h 33.622666 z m 0.852,-21.726666 H 6.760673 c -0.470666,0 -0.852,0.381333 -0.852,0.850667 v 20.875999 c 0,1.613333 1.314667,2.926667 2.928,2.926667 h 31.173333 c 1.612,0 2.925333,-1.313334 2.925333,-2.926667 V 20.478666 c 0,-0.469334 -0.38,-0.850667 -0.849333,-0.850667"
       style="fill:#000000;fill-opacity:1;fill-rule:nonzero;stroke:none;stroke-width:0.133333"
       id="path580" />
  </g>
</svg>
