<?xml version="1.0" encoding="UTF-8" standalone="no"?>
<!-- Created with Inkscape (http://www.inkscape.org/) -->

<svg
   width="48"
   height="48"
   viewBox="0 0 48 48"
   version="1.1"
   id="svg1"
   inkscape:version="1.3.2 (091e20e, 2023-11-25)"
   sodipodi:docname="location.svg"
   xmlns:inkscape="http://www.inkscape.org/namespaces/inkscape"
   xmlns:sodipodi="http://sodipodi.sourceforge.net/DTD/sodipodi-0.dtd"
   xmlns="http://www.w3.org/2000/svg"
   xmlns:svg="http://www.w3.org/2000/svg">
  <sodipodi:namedview
     id="namedview1"
     pagecolor="#ffffff"
     bordercolor="#000000"
     borderopacity="0.25"
     inkscape:showpageshadow="2"
     inkscape:pageopacity="0.0"
     inkscape:pagecheckerboard="0"
     inkscape:deskcolor="#d1d1d1"
     inkscape:document-units="px"
     inkscape:zoom="4.0254745"
     inkscape:cx="-25.338628"
     inkscape:cy="24.593374"
     inkscape:window-width="1472"
     inkscape:window-height="429"
     inkscape:window-x="0"
     inkscape:window-y="38"
     inkscape:window-maximized="0"
     inkscape:current-layer="layer1" />
  <defs
     id="defs1" />
  <g
     inkscape:label="Calque 1"
     inkscape:groupmode="layer"
     id="layer1">
    <path
       d="m 35.715365,17.346227 c -0.0083,0.02797 -0.01451,0.05698 -0.01865,0.086 -0.348127,2.121912 -0.829909,3.870833 -1.394579,5.056121 -1.430839,3.005694 -7.960281,13.732339 -10.429285,17.762731 -2.469004,-4.030392 -8.999482,-14.757037 -10.430323,-17.762735 -0.563633,-1.185288 -1.045415,-2.934209 -1.393542,-5.056121 -0.0041,-0.02901 -0.01036,-0.05802 -0.01865,-0.086 -0.234156,-0.957348 -0.354343,-1.940597 -0.354343,-2.922811 0,-6.7242276 5.472629,-12.1958215 12.196857,-12.1958215 6.724228,0 12.195821,5.4715939 12.195821,12.1958215 0,0.982214 -0.119151,1.965463 -0.353307,2.922811 z M 29.38278,44.292868 c -0.151269,0.421689 -2.013124,1.479537 -5.509929,1.479537 -3.539285,0 -5.403212,-1.082714 -5.514073,-1.466068 0.1005,-0.368848 1.620445,-1.278536 4.493524,-1.458815 0.03316,0.05387 0.05906,0.09532 0.07149,0.117078 0.20411,0.328441 0.562597,0.529442 0.949059,0.529442 0.386462,0 0.744949,-0.201001 0.946987,-0.529442 0.01451,-0.02176 0.04041,-0.0632 0.07252,-0.118114 2.837852,0.179244 4.354689,1.067173 4.490417,1.446382 z M 37.888047,17.834225 C 38.159502,16.71732 38.297303,15.570368 38.297303,14.423416 38.297303,6.4714212 31.825882,0 23.872851,0 15.91982,0 9.4483994,6.4714212 9.4483994,14.423416 c 0,1.146952 0.137801,2.293904 0.409256,3.410809 0.3864616,2.340529 0.9138316,4.22725 1.5738206,5.611466 1.418408,2.976689 7.382145,12.806079 10.120532,17.283026 -3.701951,0.471421 -5.419789,2.062856 -5.419789,3.564151 0,1.785184 2.42238,3.707132 7.740632,3.707132 5.318252,0 7.740632,-1.921948 7.740632,-3.707132 0,-1.501295 -1.718874,-3.09273 -5.421862,-3.564151 2.74046,-4.476947 8.704196,-14.306337 10.122605,-17.283026 0.656881,-1.384216 1.187359,-3.270937 1.573821,-5.611466"
       style="fill:#000000;fill-opacity:1;fill-rule:nonzero;stroke:none;stroke-width:0.103609"
       id="path86" />
    <path
       d="m 23.872851,19.567605 c -3.039889,0 -5.512002,-2.472112 -5.512002,-5.513038 0,-3.039889 2.472113,-5.5130371 5.512002,-5.5130371 3.038853,0 5.512002,2.4731481 5.512002,5.5130371 0,3.040926 -2.473149,5.513038 -5.512002,5.513038 z m 0,-13.2536696 c -4.267656,0 -7.740632,3.4719392 -7.740632,7.7406316 0,4.268693 3.472976,7.740632 7.740632,7.740632 4.267656,0 7.740632,-3.471939 7.740632,-7.740632 0,-4.2686924 -3.472976,-7.7406316 -7.740632,-7.7406316"
       style="fill:#000000;fill-opacity:1;fill-rule:nonzero;stroke:none;stroke-width:0.103609"
       id="path88" />
  </g>
</svg>
