<?xml version="1.0" encoding="UTF-8" standalone="no"?>
<!-- Created with Inkscape (http://www.inkscape.org/) -->

<svg
   width="48"
   height="48"
   viewBox="0 0 48 48"
   version="1.1"
   id="svg1"
   inkscape:version="1.3.2 (091e20e, 2023-11-25)"
   sodipodi:docname="theme.svg"
   xmlns:inkscape="http://www.inkscape.org/namespaces/inkscape"
   xmlns:sodipodi="http://sodipodi.sourceforge.net/DTD/sodipodi-0.dtd"
   xmlns="http://www.w3.org/2000/svg"
   xmlns:svg="http://www.w3.org/2000/svg">
  <sodipodi:namedview
     id="namedview1"
     pagecolor="#ffffff"
     bordercolor="#000000"
     borderopacity="0.25"
     inkscape:showpageshadow="2"
     inkscape:pageopacity="0.0"
     inkscape:pagecheckerboard="0"
     inkscape:deskcolor="#d1d1d1"
     inkscape:document-units="px"
     inkscape:zoom="4.9166667"
     inkscape:cx="24"
     inkscape:cy="24"
     inkscape:window-width="1472"
     inkscape:window-height="429"
     inkscape:window-x="0"
     inkscape:window-y="38"
     inkscape:window-maximized="0"
     inkscape:current-layer="layer1" />
  <defs
     id="defs1" />
  <g
     inkscape:label="Calque 1"
     inkscape:groupmode="layer"
     id="layer1">
    <path
       d="m 43.781374,16.301532 c -0.168288,-0.378412 -0.396476,-0.726399 -0.684564,-1.034453 -0.705483,-0.756825 -1.665774,-1.179924 -2.700228,-1.194185 -1.028748,-0.0076 -1.981434,0.378412 -2.703079,1.101958 -0.780594,0.662698 -1.247428,1.58781 -1.316835,2.607051 -0.07036,1.032552 0.273825,2.022317 0.969799,2.785798 0.279531,0.308054 0.612305,0.567618 0.977406,0.767283 l -2.490104,2.26857 -2.512922,-2.692621 c 0.489654,-0.165436 0.940325,-0.429754 1.324442,-0.781544 1.034453,-0.942227 1.458503,-2.370305 1.105762,-3.725173 -0.367954,-1.416667 -1.525058,-2.480595 -3.093851,-2.848548 -0.235795,-0.0542 -0.486802,-0.06656 -0.732105,-0.03328 -1.543123,0.214877 -2.727799,1.076288 -3.264042,2.344634 l -2.438761,-2.673605 2.891335,-2.698326 c 0.1217,-0.111242 0.219631,-0.248154 0.291891,-0.404083 C 29.579511,9.7782001 29.61469,9.4073942 29.501547,9.0632103 29.382699,8.7028631 29.111725,8.4195295 28.760886,8.2873705 28.437619,8.16567 28.157138,7.9736116 27.926097,7.7207032 27.122685,6.8374245 27.169273,5.5006221 28.009766,4.6953079 c 0.876624,-0.7796431 2.240048,-0.7159405 3.04251,0.1426176 0.233893,0.2510071 0.401231,0.5467009 0.49726,0.8747214 0.104586,0.3631996 0.36415,0.6569918 0.714039,0.8043634 0.333725,0.1416669 0.705482,0.1359622 1.03065,-0.013311 0.159731,-0.057998 0.30235,-0.1435683 0.422148,-0.2529085 l 2.927465,-2.6688512 2.470137,2.6460324 c -1.309231,0.4326067 -2.263817,1.5450242 -2.602297,3.0662789 -0.05134,0.2348437 -0.06084,0.4868015 -0.02567,0.7302021 0.239598,1.593515 1.206546,2.833336 2.587084,3.315384 1.322541,0.46018 2.781043,0.154027 3.805989,-0.801511 0.379363,-0.355593 0.679811,-0.783445 0.884229,-1.256936 l 2.480596,2.723045 z m 1.000226,-6.24475 c -0.03518,-0.081768 -0.08557,-0.1568795 -0.146421,-0.2234344 l -0.04754,-0.050392 c -0.31566,-0.3384787 -0.791052,-0.478244 -1.236019,-0.3641498 -0.455426,0.114094 -0.81197,0.4706382 -0.930817,0.9279652 -0.103637,0.397428 -0.319464,0.756824 -0.618961,1.038256 -0.59424,0.554307 -1.440438,0.733054 -2.208672,0.464934 -0.830035,-0.289038 -1.3948,-1.040158 -1.546926,-2.0555955 -0.0076,-0.051342 -0.0048,-0.110291 0.0048,-0.1597317 0.24245,-1.0895987 0.92131,-1.8140963 1.861635,-1.9861882 0.465884,-0.085571 0.844296,-0.4154926 0.990717,-0.8595089 0.143568,-0.4345083 0.03803,-0.9137036 -0.275727,-1.2493304 L 37.531931,2.2213695 c -0.174945,-0.1854028 -0.395527,-0.3137587 -0.64273,-0.369855 -0.06466,-0.015212 -0.129307,-0.021868 -0.195862,-0.020917 -0.309005,0.0076 -0.602797,0.1245527 -0.830986,0.3299221 L 32.912961,4.8483863 C 32.743721,4.4481061 32.506025,4.0849066 32.204626,3.76164 30.825039,2.2822198 28.472798,2.1728796 26.941085,3.5363041 25.45501,4.9567756 25.375143,7.2614765 26.760436,8.7817804 c 0.296645,0.3270698 0.640829,0.5923385 1.026847,0.7939047 l -2.913202,2.7182919 c -0.07036,0.0656 -0.116946,0.130257 -0.142618,0.169239 -0.147372,0.192058 -0.235794,0.412641 -0.258613,0.639877 -0.0076,0.06466 -0.0057,0.131209 0.0038,0.196813 0.03898,0.252909 0.150224,0.4849 0.319464,0.668401 l 3.054868,3.352466 c 0.309956,0.340381 0.777742,0.48585 1.222709,0.377461 0.454475,-0.110291 0.814822,-0.462081 0.936522,-0.919408 0.249106,-0.923212 1.025897,-1.540271 2.128806,-1.693347 0.05134,-0.0076 0.109341,-0.0048 0.157831,0.0067 1.004027,0.234844 1.706657,0.857608 1.92819,1.708559 0.204418,0.78725 -0.04183,1.616333 -0.64273,2.163985 -0.303301,0.277629 -0.67886,0.462081 -1.082943,0.532439 -0.466836,0.08177 -0.850953,0.407887 -1.003077,0.851903 -0.148323,0.43641 -0.04849,0.920359 0.263367,1.262641 l 0.04658,0.05039 c 0.0599,0.06656 0.132159,0.1217 0.211074,0.164486 l 2.925563,3.134736 c 0.202517,0.217729 0.479195,0.358445 0.778692,0.395526 0.03233,0.0029 0.06466,0.0048 0.09698,0.0048 0.03613,0 0.07226,-0.0019 0.108389,-0.0067 0.139766,-0.01996 0.274777,-0.06466 0.414542,-0.137863 0.06466,-0.03423 0.161633,-0.08937 0.261466,-0.180649 l 3.197487,-2.914153 c 0.03898,-0.03518 0.07416,-0.07511 0.106488,-0.118849 0.233893,-0.320414 0.305202,-0.739709 0.191108,-1.120974 -0.111242,-0.376511 -0.386018,-0.672204 -0.75207,-0.810069 -0.321366,-0.120749 -0.599945,-0.310906 -0.832887,-0.566666 -0.404084,-0.444017 -0.604699,-1.01734 -0.563816,-1.616334 0.04088,-0.598994 0.319464,-1.141891 0.783447,-1.528861 0.01996,-0.01711 0.03898,-0.03423 0.05799,-0.05324 0.422149,-0.430706 0.989767,-0.650337 1.585908,-0.656042 0.600896,0.0067 1.157105,0.25291 1.566893,0.692171 0.233892,0.251958 0.402181,0.546702 0.498211,0.876623 0.107439,0.37556 0.378413,0.673156 0.745414,0.814823 0.370806,0.144519 0.793906,0.106488 1.133336,-0.101735 0.04564,-0.02662 0.08747,-0.0599 0.126454,-0.09603 l 3.162307,-2.950284 c 0.184453,-0.172092 0.311858,-0.392674 0.369856,-0.637975 0.01617,-0.06941 0.02377,-0.140717 0.01996,-0.212026 -0.01046,-0.3033 -0.129305,-0.591388 -0.32802,-0.808167 l -2.889438,-3.171838"
       style="fill:#000000;fill-opacity:1;fill-rule:nonzero;stroke:none;stroke-width:0.0950781"
       id="path524" />
    <path
       d="M 3.768573,39.769738 C 2.9594557,39.75833 2.2130907,39.331427 1.8289737,38.613584 1.4163329,37.838695 1.50951,36.905976 2.0875869,36.053123 c 0.027575,-0.03994 0.064659,-0.07892 0.1074386,-0.10839 0.840493,-0.587584 1.7675074,-0.697875 2.543348,-0.301398 0.3974275,0.201565 0.8604592,0.181599 1.2388714,-0.05229 0.3822151,-0.235793 0.6094527,-0.644631 0.6056489,-1.093401 l -0.020917,-3.299221 4.2043672,-0.02472 c 0.750169,-0.0048 1.437586,-0.416444 1.79413,-1.074387 0.360347,-0.664598 0.329922,-1.476567 -0.08177,-2.116446 -0.140716,-0.218679 -0.216779,-0.474441 -0.21868,-0.737808 -0.0019,-0.373657 0.142618,-0.725449 0.405035,-0.989766 0.502964,-0.504867 1.294968,-0.542898 2.025169,-0.06846 0.260515,0.392673 0.578077,1.099106 0.143569,1.786523 -0.405034,0.639877 -0.431656,1.449945 -0.0675,2.109791 0.358445,0.651287 1.048714,1.05632 1.803637,1.05632 l 3.698551,-0.02282 0.01711,2.926513 c -1.190381,-0.418345 -2.553807,-0.199665 -3.711861,0.609452 -0.194911,0.135963 -0.371757,0.313759 -0.509621,0.516276 -0.900393,1.329196 -1.029699,2.891335 -0.347987,4.178697 0.65509,1.233167 1.92724,1.999499 3.343908,1.999499 0.432607,-0.0029 0.863312,-0.08082 1.268346,-0.228188 l 0.01996,3.38289 c -0.03137,0.03613 -0.06275,0.07226 -0.08652,0.114094 l -13.6180795,0.08083 -0.023769,-4.051291 c -0.0038,-0.450672 -0.2367452,-0.859509 -0.624665,-1.0915 -0.3803142,-0.226286 -0.8385912,-0.240549 -1.226511,-0.03518 -0.311858,0.164486 -0.6484359,0.249107 -1.0002253,0.251008 z M 7.6877057,26.359877 c 1.3986037,-0.0095 2.6688503,-0.786298 3.3144343,-2.028973 0.672204,-1.294968 0.527685,-2.858057 -0.389822,-4.180597 -0.138814,-0.198715 -0.317562,-0.37651 -0.519129,-0.514375 C 8.9341838,18.846781 7.58407,18.642363 6.4193595,19.055003 l -0.021871,-3.685239 4.0522425,-0.02472 c 0.450671,-0.0038 0.859509,-0.236745 1.0915,-0.624666 0.227237,-0.378412 0.240548,-0.837641 0.03518,-1.226511 -0.163535,-0.310907 -0.249106,-0.647484 -0.251007,-1.000224 -0.0038,-0.584733 0.221532,-1.135236 0.634173,-1.550729 0.413591,-0.414542 0.963144,-0.642731 1.548828,-0.642731 h 0.0029 c 0.512473,0 1.028748,0.172092 1.526008,0.509621 0.04373,0.03043 0.08367,0.06846 0.113144,0.110291 0.587584,0.840493 0.696925,1.767508 0.301398,2.546199 -0.200615,0.394576 -0.181599,0.855706 0.05039,1.234118 0.233893,0.381265 0.640829,0.607552 1.094353,0.607552 l 4.053193,-0.02377 0.02377,4.03798 c 0.0038,0.697875 0.574273,1.267395 1.272149,1.267395 0.194911,0 0.389822,-0.04659 0.576176,-0.139765 0.762528,-0.392674 1.680035,-0.293792 2.523381,0.281432 0.04469,0.03043 0.08367,0.0694 0.113143,0.111241 0.584732,0.844297 0.689318,1.776065 0.285235,2.554758 -0.374609,0.721645 -1.112417,1.172317 -1.937698,1.17707 -0.34038,0 -0.6665,-0.07607 -0.962193,-0.224385 -0.471588,-0.240547 -1.084845,-0.138812 -1.461355,0.241501 -0.241499,0.244352 -0.373659,0.567618 -0.371757,0.9099 l 0.02282,3.680487 c -0.07796,0.06655 -0.151175,0.143568 -0.212026,0.23104 h -9.25e-4 -9.26e-4 v 9.26e-4 c -0.02947,0.04088 -0.0542,0.08272 -0.07796,0.124553 l -3.875397,0.02377 c -0.179697,0 -0.335626,-0.08937 -0.418344,-0.239597 -0.08652,-0.157831 -0.07986,-0.35179 0.01996,-0.506769 0.676958,-1.073434 0.595191,-2.41309 -0.222484,-3.591111 -0.08271,-0.115996 -0.189206,-0.221533 -0.311857,-0.305203 -0.636074,-0.432606 -1.301623,-0.652237 -1.979532,-0.652237 -0.797708,0 -1.545025,0.310906 -2.106938,0.876623 -0.560963,0.564765 -0.869017,1.314934 -0.864263,2.112643 0.0047,0.561913 0.166388,1.109565 0.469687,1.579252 0.100784,0.155929 0.108389,0.352741 0.02281,0.511522 -0.08367,0.153101 -0.243401,0.249131 -0.418346,0.250081 l -4.2747262,0.02472 -0.019963,-3.460854 c 0.3869689,0.132159 0.7948559,0.198714 1.225561,0.198714 z m 17.7216663,2.486302 -3.101458,0.01902 -0.01711,-2.915105 c 0.389822,0.134061 0.802462,0.201566 1.236971,0.201566 0.893736,-0.0048 1.731378,-0.325169 2.39027,-0.877574 -0.742562,1.151399 -0.92321,2.422598 -0.508669,3.572096 z m 1.55263,0.961243 c 0.23009,-0.378414 0.246254,-0.839543 0.04564,-1.233168 -0.231041,-0.449721 -0.501063,-1.376736 0.280481,-2.523381 0.03137,-0.04469 0.07131,-0.08557 0.111242,-0.114094 0.507718,-0.350839 1.028748,-0.529587 1.552631,-0.529587 1.194185,0 2.172541,0.973603 2.180147,2.168739 0.0029,0.345134 -0.07416,0.675057 -0.226287,0.98121 -0.196811,0.38887 -0.174943,0.844296 0.05514,1.217954 0.235794,0.381264 0.64273,0.609452 1.098155,0.609452 l 4.036079,-0.02472 0.02092,3.705206 c -1.237921,-0.555258 -2.738258,-0.382215 -3.986638,0.48585 -0.200615,0.138815 -0.378412,0.318513 -0.517226,0.521982 -0.903246,1.330146 -1.033503,2.892285 -0.35084,4.181548 0.653189,1.234118 1.926289,1.999499 3.343908,1.999499 0.540045,-0.0029 1.06773,-0.1217 1.55168,-0.345134 l 0.02282,3.703304 -3.461805,0.02092 c 0.13406,-0.391722 0.200615,-0.808166 0.198713,-1.22461 -0.01141,-2.059398 -1.697149,-3.735631 -3.75845,-3.736581 -0.83764,0 -1.684789,0.280481 -2.448269,0.811018 -0.199665,0.136914 -0.378412,0.316612 -0.515325,0.519129 -0.802461,1.17612 -1.004979,2.489153 -0.58283,3.67383 l -3.684289,0.02092 -0.02472,-4.050341 c -0.0038,-0.701678 -0.573322,-1.271198 -1.270247,-1.271198 -0.202517,0 -0.403133,0.04944 -0.58093,0.143568 -0.310906,0.165437 -0.647484,0.249106 -1.013535,0.251007 -0.809118,0 -1.547877,-0.444967 -1.92819,-1.160908 -0.410739,-0.773937 -0.315661,-1.705707 0.258613,-2.552855 0.02947,-0.04183 0.06846,-0.08177 0.10934,-0.111242 0.846198,-0.592338 1.777016,-0.693122 2.542397,-0.3033 0.479195,0.246254 1.095303,0.145471 1.475616,-0.237695 0.240549,-0.2415 0.371758,-0.563816 0.369856,-0.905147 l -0.02377,-4.053193 4.038931,-0.02377 c 0.444966,-0.0029 0.84905,-0.231991 1.081042,-0.614206 z M 5.0682958,45.01046 c 0.00478,0.699777 0.5771259,1.265494 1.2750009,1.265494 h 0.00759 l 14.6677443,-0.08652 c 0.03898,0 0.07701,-0.0085 0.114094,-0.01426 0.154043,0.06465 0.322332,0.10078 0.50108,0.10078 l 4.549501,-0.02662 c 0.0542,0 0.105538,-0.0057 0.157832,-0.01617 0.386018,-0.07986 0.718793,-0.342283 0.889934,-0.699777 0.17019,-0.357495 0.163534,-0.76348 -0.01617,-1.116222 -0.231041,-0.450671 -0.500113,-1.378636 0.281432,-2.527183 0.02947,-0.04183 0.06846,-0.08271 0.111241,-0.111243 0.506767,-0.350838 1.028748,-0.529586 1.55073,-0.529586 1.196087,0 2.174443,0.973603 2.181099,2.168739 0.0019,0.345135 -0.07511,0.676007 -0.227238,0.981209 -0.175894,0.349889 -0.176846,0.753021 -0.0038,1.105762 0.173994,0.357495 0.510571,0.616108 0.900392,0.694072 0.05229,0.01046 0.101734,0.01617 0.158782,0.01521 l 4.321314,-0.02567 c 0.342282,-9.26e-4 0.661745,-0.135962 0.901343,-0.379363 0.240548,-0.24245 0.369855,-0.563814 0.367953,-0.903244 l -0.02567,-4.518127 c -0.0048,-0.707384 -0.563816,-1.261691 -1.275002,-1.261691 -0.246253,0 -0.489654,0.07226 -0.701679,0.208223 -0.346086,0.221532 -0.748268,0.34038 -1.173268,0.343232 -0.810068,0 -1.548827,-0.445917 -1.927239,-1.162809 -0.410739,-0.773938 -0.314709,-1.705707 0.261466,-2.554757 0.02853,-0.04279 0.06656,-0.08177 0.10934,-0.111241 0.510571,-0.353692 1.034454,-0.534342 1.558336,-0.534342 0.410738,0 0.810067,0.115996 1.157104,0.335627 0.495359,0.312809 1.186578,0.235795 1.593513,-0.173043 0.235795,-0.236745 0.3632,-0.554306 0.361298,-0.892785 l -0.02566,-4.536196 c -0.0057,-0.697875 -0.577125,-1.266444 -1.283558,-1.266444 l -3.879199,0.02377 c 0.137864,-0.396477 0.204419,-0.81197 0.202517,-1.238873 -0.01331,-2.059398 -1.699051,-3.73563 -3.75845,-3.73563 -0.830035,0 -1.668626,0.274776 -2.427352,0.794855 0.116947,-0.157832 0.225336,-0.324219 0.317561,-0.501064 0.674107,-1.29687 0.528637,-2.859008 -0.38792,-4.179648 -0.136912,-0.198714 -0.315659,-0.37651 -0.520078,-0.515325 -1.154252,-0.789151 -2.513873,-0.99452 -3.68619,-0.576176 l -0.02377,-3.881101 c -0.0038,-0.698826 -0.574275,-1.266444 -1.281657,-1.266444 l -3.889658,0.02281 C 17.482708,12.526914 17.269732,11.19962 16.4435,10.017795 16.307539,9.8219333 16.129742,9.6460382 15.927225,9.5072237 15.168499,8.9938002 14.333711,8.721876 13.511282,8.721876 h -0.0038 c -1.008782,0 -1.955763,0.3945754 -2.66695,1.1086143 -0.710236,0.7149897 -1.0981554,1.6638717 -1.0934016,2.6736047 0.0038,0.432607 0.08177,0.862361 0.2300895,1.266444 L 6.08471,13.793359 c -0.3394298,0.0029 -0.6588935,0.136914 -0.8984915,0.379364 -0.2395971,0.241499 -0.3717556,0.562863 -0.3679527,0.902293 l 0.027575,4.551404 c 0,0.05229 0.00667,0.104587 0.015213,0.154978 0.1226509,0.587585 0.646533,1.015438 1.2426752,1.015438 0.1996647,0 0.3917227,-0.04659 0.5733222,-0.139766 0.7701358,-0.392673 1.6828879,-0.293792 2.5281356,0.281433 0.041834,0.02947 0.083669,0.06941 0.1112413,0.111241 0.5856827,0.845248 0.6902689,1.776065 0.2861861,2.554757 -0.3755593,0.721646 -1.1124176,1.172317 -1.9386491,1.178022 -0.3394299,0 -0.6655493,-0.07701 -0.9717016,-0.23009 -0.1749446,-0.08652 -0.360347,-0.130257 -0.5514541,-0.130257 -0.6037487,0 -1.1276309,0.433558 -1.2445771,1.031601 -0.00951,0.05134 -0.01426,0.103635 -0.01426,0.155928 l 0.023769,4.324167 c 0.00194,0.12075 0.031371,0.232942 0.08177,0.333725 -0.00194,0.01902 -0.00759,0.03803 -0.00759,0.05705 l 0.022815,3.716615 c -1.20084,-0.428803 -2.5290857,-0.215828 -3.7109104,0.610404 -0.1977637,0.136913 -0.37460941,0.316611 -0.51057081,0.517226 -0.90229533,1.333 -1.03160102,2.898941 -0.34323366,4.187254 0.65984447,1.23602 1.94245207,1.999499 3.34010487,1.990942 0.4316561,-0.0029 0.8623621,-0.08177 1.2673962,-0.229139 l 0.022815,3.89251"
       style="fill:#000000;fill-opacity:1;fill-rule:nonzero;stroke:none;stroke-width:0.0950781"
       id="path526" />
  </g>
</svg>
