<?xml version="1.0" encoding="UTF-8" standalone="no"?>
<!-- Created with Inkscape (http://www.inkscape.org/) -->

<svg
   width="180"
   height="180"
   viewBox="0 0 180 180"
   version="1.1"
   id="svg1"
   inkscape:version="1.3.2 (091e20e, 2023-11-25)"
   sodipodi:docname="algo.svg"
   xmlns:inkscape="http://www.inkscape.org/namespaces/inkscape"
   xmlns:sodipodi="http://sodipodi.sourceforge.net/DTD/sodipodi-0.dtd"
   xmlns="http://www.w3.org/2000/svg"
   xmlns:svg="http://www.w3.org/2000/svg">
  <sodipodi:namedview
     id="namedview1"
     pagecolor="#ffffff"
     bordercolor="#000000"
     borderopacity="0.25"
     inkscape:showpageshadow="2"
     inkscape:pageopacity="0.0"
     inkscape:pagecheckerboard="0"
     inkscape:deskcolor="#d1d1d1"
     inkscape:document-units="px"
     inkscape:zoom="1.3111111"
     inkscape:cx="13.728814"
     inkscape:cy="67.881356"
     inkscape:window-width="1472"
     inkscape:window-height="429"
     inkscape:window-x="0"
     inkscape:window-y="39"
     inkscape:window-maximized="0"
     inkscape:current-layer="layer1" />
  <defs
     id="defs1" />
  <g
     inkscape:label="Calque 1"
     inkscape:groupmode="layer"
     id="layer1">
    <path
       d="M 16.665255,150.30193 V 59.200618 c 0,-3.198671 2.987975,-5.797197 6.659095,-5.797197 h 24.101714 c 3.671138,0 6.659113,2.598526 6.659113,5.797197 v 91.101312 c 0,3.19229 -2.987975,5.7972 -6.659113,5.7972 H 23.32435 c -3.67112,0 -6.659095,-2.60491 -6.659095,-5.7972 z m 30.760809,12.41801 c 7.316712,0 13.273502,-5.57373 13.273502,-12.41801 V 59.200618 c 0,-6.844236 -5.95679,-12.411594 -13.273502,-12.411594 H 23.32435 c -7.316703,0 -13.273502,5.567358 -13.273502,12.411594 v 91.101312 c 0,6.84428 5.956799,12.41801 13.273502,12.41801 h 24.101714"
       style="fill:#000000;fill-opacity:1;fill-rule:nonzero;stroke:none;stroke-width:0.638455"
       id="path1366" />
    <path
       d="M 166.03849,17.011406 V 146.47119 c 0,5.21622 -3.05181,9.62794 -6.65912,9.62794 h -24.10171 c -3.60089,0 -6.6527,-4.41172 -6.6527,-9.62794 V 17.011406 c 0,-5.222543 3.05181,-9.6343057 6.6527,-9.6343057 h 24.10171 c 3.60731,0 6.65912,4.4117627 6.65912,9.6343057 z M 135.27766,0.76271134 c -7.31671,0 -13.2735,7.29118396 -13.2735,16.24869466 V 146.47119 c 0,8.95755 5.95679,16.24875 13.2735,16.24875 h 24.10171 c 7.31671,0 13.27351,-7.2912 13.27351,-16.24875 V 17.011406 c 0,-8.9575107 -5.9568,-16.24869466 -13.27351,-16.24869466 h -24.10171"
       style="fill:#000000;fill-opacity:1;fill-rule:nonzero;stroke:none;stroke-width:0.638455"
       id="path1368" />
    <path
       d="m 71.853433,93.172889 c 0,-0.823606 2.515499,-2.70708 6.6527,-2.70708 h 24.101697 c 4.14362,0 6.65275,1.883474 6.65275,2.70708 v 60.212791 c 0,0.83002 -2.50913,2.71345 -6.65275,2.71345 H 78.506133 c -4.137201,0 -6.6527,-1.88343 -6.6527,-2.71345 z m 6.6527,69.547051 h 24.101697 c 7.44442,0 13.27351,-4.09889 13.27351,-9.33426 V 93.172889 c 0,-5.228956 -5.82909,-9.321478 -13.27351,-9.321478 H 78.506133 c -7.438004,0 -13.267143,4.092522 -13.267143,9.321478 v 60.212791 c 0,5.23537 5.829139,9.33426 13.267143,9.33426"
       style="fill:#000000;fill-opacity:1;fill-rule:nonzero;stroke:none;stroke-width:0.638455"
       id="path1370" />
    <path
       d="m 15.841648,174.69736 c 0,3.34552 2.975202,6.06535 6.646332,6.06535 h 140.21139 c 3.6711,0 6.64633,-2.71983 6.64633,-6.06535 0,-3.34553 -2.97523,-6.06535 -6.64633,-6.06535 H 22.48798 c -3.67113,0 -6.646332,2.71982 -6.646332,6.06535"
       style="fill:#000000;fill-opacity:1;fill-rule:nonzero;stroke:none;stroke-width:0.638455"
       id="path1372" />
  </g>
</svg>
