<?xml version="1.0" encoding="UTF-8" standalone="no"?>
<!-- Created with Inkscape (http://www.inkscape.org/) -->

<svg
   width="180"
   height="180"
   viewBox="0 0 180 180"
   version="1.1"
   id="svg1"
   inkscape:version="1.3.2 (091e20e, 2023-11-25)"
   sodipodi:docname="talking.svg"
   xmlns:inkscape="http://www.inkscape.org/namespaces/inkscape"
   xmlns:sodipodi="http://sodipodi.sourceforge.net/DTD/sodipodi-0.dtd"
   xmlns="http://www.w3.org/2000/svg"
   xmlns:svg="http://www.w3.org/2000/svg">
  <sodipodi:namedview
     id="namedview1"
     pagecolor="#ffffff"
     bordercolor="#000000"
     borderopacity="0.25"
     inkscape:showpageshadow="2"
     inkscape:pageopacity="0.0"
     inkscape:pagecheckerboard="0"
     inkscape:deskcolor="#d1d1d1"
     inkscape:document-units="px"
     inkscape:zoom="1.3111111"
     inkscape:cx="90"
     inkscape:cy="89.618644"
     inkscape:window-width="1512"
     inkscape:window-height="916"
     inkscape:window-x="0"
     inkscape:window-y="38"
     inkscape:window-maximized="1"
     inkscape:current-layer="layer1" />
  <defs
     id="defs1" />
  <g
     inkscape:label="Calque 1"
     inkscape:groupmode="layer"
     id="layer1">
    <path
       d="m 112.64042,167.09669 c -0.72784,-4.68196 -2.08547,-10.32924 -4.58903,-15.8681 0.90334,-1.46602 1.78605,-2.66361 2.49841,-3.51535 9.94723,6.45255 20.57072,3.44308 26.55869,-0.0723 5.30141,6.16347 6.65389,14.90797 6.99973,19.45056 z m -67.220083,7.74307 c 1.089212,-16.52369 8.661924,-26.88907 12.120477,-30.81737 16.100414,11.2171 32.515704,3.43275 38.426214,-0.11874 9.131652,9.81303 10.897072,24.63324 11.222282,30.92577 z m 104.980393,-4.55292 c 0.0271,-0.75366 0.48007,-18.62464 -10.77315,-28.93323 -1.10985,-1.0066 -2.78235,-1.08403 -3.96963,-0.1755 -0.50586,0.37682 -12.34244,9.14197 -23.52857,0.036 -1.16146,-0.95497 -2.84944,-0.92917 -3.98508,0.0619 -0.16532,0.13938 -1.60541,1.44021 -3.41213,3.84056 -1.72926,-2.65845 -3.79925,-5.19301 -6.266695,-7.45915 -1.109848,-1.01176 -2.782352,-1.08402 -3.979931,-0.17549 -0.738181,0.56782 -18.459454,13.74135 -35.30835,0.0205 -1.161455,-0.94982 -2.844293,-0.92401 -3.985117,0.0619 -0.640078,0.5575 -15.71322,13.95815 -16.09008,40.33102 -0.0116,0.82592 0.309727,1.62604 0.89305,2.21967 0.578131,0.58848 1.378265,0.91885 2.204176,0.91885 l 68.154407,-0.0104 c 1.6725,0 3.04046,-1.32665 3.09207,-2.99914 0.0116,-0.25812 0.0619,-2.02353 -0.11886,-4.7336 l 33.98174,-0.0104 c 1.66731,0 3.03528,-1.32149 3.09204,-2.99399"
       style="fill:#000000;fill-opacity:1;fill-rule:nonzero;stroke:none;stroke-width:0.516203"
       id="path1382" />
    <path
       d="M 128.83891,50.940489 V 38.902614 h 14.48985 c 1.23371,0 2.2403,1.006598 2.2403,2.240327 v 27.24008 c 0,1.238889 -1.00659,2.245486 -2.2403,2.245486 h -13.55554 c -0.65042,0 -1.26467,0.273603 -1.70347,0.748496 -0.43877,0.474912 -0.66072,1.115002 -0.60911,1.76026 l 0.062,0.794954 -2.17839,-2.498428 c -0.43877,-0.511043 -1.07885,-0.805282 -1.74994,-0.805282 H 101.0465 c -1.233698,0 -2.240295,-1.006597 -2.240295,-2.245486 v -7.252665 h 19.853205 c 5.61627,0 10.17953,-4.568408 10.17953,-10.189867 z m -10.52542,9.838849 H 94.160335 v 7.603683 c 0,3.804424 3.086887,6.896484 6.886135,6.896484 h 21.48443 l 6.10668,7.020371 c 0.44911,0.52137 1.09437,0.800121 1.75509,0.800121 0.29926,0 0.60395,-0.05683 0.89304,-0.180686 0.92402,-0.39231 1.49701,-1.326639 1.41957,-2.328076 l -0.41812,-5.311743 h 11.0416 c 3.7941,0 6.88614,-3.09206 6.88614,-6.896478 V 41.142929 c 0,-3.79926 -3.09204,-6.886162 -6.88614,-6.886162 h -15.04221 v 16.544335 c 0,5.502737 -4.47548,9.978223 -9.97306,9.978223"
       style="fill:#000000;fill-opacity:1;fill-rule:nonzero;stroke:none;stroke-width:0.516203"
       id="path1384" />
    <path
       d="m 39.793725,11.006955 c 0,-2.5500487 2.075142,-4.6251884 4.620015,-4.6251884 h 73.89975 c 2.55006,0 4.62005,2.0751397 4.62005,4.6251884 v 39.794159 c 0,2.550048 -2.06999,4.625188 -4.62005,4.625188 H 84.006594 c -0.774305,0 -1.512493,0.335546 -2.023535,0.918842 l -5.538843,6.37512 0.340698,-4.408384 c 0.06191,-0.743335 -0.196291,-1.481502 -0.696877,-2.02868 -0.511043,-0.547175 -1.223401,-0.856898 -1.966736,-0.856898 H 44.41374 c -2.544873,0 -4.620015,-2.07514 -4.620015,-4.625188 z m -5.353047,39.794159 c 0,5.502736 4.480678,9.978224 9.973062,9.978224 h 26.811656 l -0.753669,9.611717 c -0.09292,1.151139 0.567836,2.229998 1.631187,2.67394 0.340697,0.144523 0.691729,0.211656 1.037574,0.211656 0.758816,0 1.497004,-0.325209 2.01838,-0.918847 L 85.224847,60.779351 h 8.935488 24.153155 c 5.49758,0 9.97306,-4.475489 9.97306,-9.978226 V 34.256779 11.006955 c 0,-5.4975716 -4.47548,-9.9730597 -9.97306,-9.9730597 H 44.41374 c -5.492384,0 -9.973062,4.4754881 -9.973062,9.9730597 v 39.794159"
       style="fill:#000000;fill-opacity:1;fill-rule:nonzero;stroke:none;stroke-width:0.516203"
       id="path1386" />
    <path
       d="m 92.508474,122.11985 c -4.336116,4.34644 -10.096949,6.74163 -16.219115,6.74163 h -0.0116 c -12.65731,0 -22.960767,-10.30344 -22.965915,-22.9556 0,-6.127332 2.39001,-11.893332 6.731312,-16.239769 4.346412,-4.341276 10.107251,-6.73646 16.234603,-6.73646 12.657304,0 22.960762,10.298265 22.965916,22.955589 0,6.12217 -2.390016,11.89334 -6.736467,16.23461 z m 20.297146,-12.95672 c 2.85974,-2.85977 6.65385,-4.43935 10.68542,-4.43935 8.33669,0 15.11446,6.78292 15.1196,15.11445 0,4.03155 -1.57443,7.82565 -4.43418,10.68542 -2.85463,2.85977 -6.64354,4.43419 -10.68027,4.43419 h -0.004 c -8.33153,0 -15.11445,-6.77775 -15.11445,-15.10929 0,-4.03155 1.56924,-7.82565 4.42902,-10.68542 z m 10.68542,31.98916 h 0.004 c 5.68856,0 11.03645,-2.21968 15.06285,-6.25123 4.03153,-4.02639 6.24605,-9.37942 6.24605,-15.06283 -0.004,-11.7488 -9.56527,-21.308899 -21.31405,-21.308899 -5.68859,0 -11.03645,2.219679 -15.06799,6.251229 -1.21825,1.21824 -2.24549,2.5707 -3.12304,4.00574 0.0929,-0.96014 0.13937,-1.92544 0.13937,-2.90106 -0.0116,-16.074593 -13.090922,-29.150035 -29.16036,-29.150035 -7.779181,0 -15.104112,3.035273 -20.612023,8.553492 -5.518206,5.513059 -8.553486,12.837997 -8.548339,20.617183 0.0039,16.07459 13.085771,29.14488 29.160362,29.14488 h 0.0116 c 7.779175,0 15.098965,-3.03528 20.601684,-8.5535 2.178392,-2.17322 3.954106,-4.63551 5.316886,-7.29397 -0.004,0.21682 -0.031,0.43362 -0.031,0.65042 0.004,11.74365 9.56528,21.29858 21.31409,21.29858"
       style="fill:#000000;fill-opacity:1;fill-rule:nonzero;stroke:none;stroke-width:0.516203"
       id="path1388" />
  </g>
</svg>
