<?xml version="1.0" encoding="UTF-8" standalone="no"?>
<!-- Created with Inkscape (http://www.inkscape.org/) -->

<svg
   width="180"
   height="180"
   viewBox="0 0 180 180"
   version="1.1"
   id="svg1"
   inkscape:version="1.3.2 (091e20e, 2023-11-25)"
   sodipodi:docname="vote.svg"
   xmlns:inkscape="http://www.inkscape.org/namespaces/inkscape"
   xmlns:sodipodi="http://sodipodi.sourceforge.net/DTD/sodipodi-0.dtd"
   xmlns="http://www.w3.org/2000/svg"
   xmlns:svg="http://www.w3.org/2000/svg">
  <sodipodi:namedview
     id="namedview1"
     pagecolor="#ffffff"
     bordercolor="#000000"
     borderopacity="0.25"
     inkscape:showpageshadow="2"
     inkscape:pageopacity="0.0"
     inkscape:pagecheckerboard="0"
     inkscape:deskcolor="#d1d1d1"
     inkscape:document-units="px"
     inkscape:zoom="1.3111111"
     inkscape:cx="65.59322"
     inkscape:cy="71.694915"
     inkscape:window-width="1472"
     inkscape:window-height="429"
     inkscape:window-x="-8"
     inkscape:window-y="382"
     inkscape:window-maximized="0"
     inkscape:current-layer="layer1" />
  <defs
     id="defs1" />
  <g
     inkscape:label="Calque 1"
     inkscape:groupmode="layer"
     id="layer1">
    <path
       d="m 161.60389,157.5868 v 6.13263 c 0,1.46306 1.18779,2.64575 2.64575,2.64575 h 11.05708 v 3.49198 H 51.27262 v -3.49198 H 62.3297 c 1.46304,0 2.64063,-1.18269 2.64063,-2.64575 v -6.13263 h 6.35695 c 1.45795,0 2.64066,-1.18268 2.64066,-2.64065 l -0.0765,-8.71211 78.71993,-0.0103 v 8.7223 c 0,1.45797 1.1878,2.64065 2.64575,2.64065 z m -5.23033,-15.10472 c -0.004,-0.005 -0.0115,-0.0103 -0.0153,-0.0153 -0.98898,-0.97877 -2.294,-1.51914 -3.6704,-1.51914 h -78.7964 c -1.3611,0 -2.70692,0.56076 -3.68061,1.52933 -0.96856,0.96859 -1.52425,2.3144 -1.52425,3.6857 v 6.13773 h -6.35691 c -1.45799,0 -2.64066,1.18778 -2.64066,2.64575 v 6.13263 H 48.62686 c -1.45287,0 -2.64067,1.18269 -2.64067,2.64065 v 8.7784 c 0,1.45795 1.1878,2.64062 2.64067,2.64062 h 129.32052 c 1.45795,0 2.64575,-1.18267 2.64575,-2.64062 v -8.7784 c 0,-1.45796 -1.1878,-2.64065 -2.64575,-2.64065 h -11.05709 v -6.13263 c 0,-1.45797 -1.18271,-2.64575 -2.64066,-2.64575 h -6.35183 v -6.13773 c 0,-1.38659 -0.54039,-2.69163 -1.52425,-3.68059"
       style="fill:#000000;fill-opacity:1;fill-rule:nonzero;stroke:none;stroke-width:0.509777"
       id="path1338" />
    <path
       d="M 77.33248,75.798003 14.49721,127.79536 6.1521303,117.06454 72.05115,68.951683 l 5.38326,-3.93039 5.05701,6.50476 z M 68.77329,45.287778 88.26722,30.121877 94.59866,25.197421 124.46144,63.588813 98.6361,83.674073 Z m -5.34759,-2.538695 -0.3925,0.310952 c -2.34501,1.819908 -5.73501,1.391695 -7.56004,-0.943087 -1.82499,-2.344982 -1.39678,-5.740104 0.94311,-7.565109 L 85.9783,11.555746 v 0 c 0.9584,-0.739177 2.11048,-1.136804 3.29828,-1.136804 0.22443,0 0.45367,0.01529 0.68307,0.04588 1.42741,0.178435 2.69676,0.897211 3.57865,2.039111 1.63639,2.100289 1.45286,5.133467 -0.42822,7.050232 l -0.12234,0.122347 c -0.12732,0.132555 -0.2447,0.270195 -0.39251,0.382333 z m 65.99078,23.75566 c 0,0 0.13764,-0.0816 0.14261,-0.0816 0,-0.005 0.004,-0.005 0.004,-0.005 0.85134,-0.49449 1.78423,-0.73408 2.71713,-0.73408 1.6058,0 3.1861,0.71879 4.22605,2.05441 1.8199,2.34497 1.39677,5.735 -0.94819,7.55491 l -29.56204,22.996086 c -2.33988,1.825001 -5.735,1.40189 -7.55999,-0.94309 -1.81991,-2.344976 -1.39682,-5.734996 0.94306,-7.554906 l 29.56716,-23.00119 c 0.15293,-0.11214 0.31084,-0.19881 0.46897,-0.28549 z m -34.81782,20.57975 c -3.24219,3.77235 -3.49709,9.435986 -0.33148,13.509117 2.10539,2.70182 5.25582,4.1139 8.43684,4.1139 2.28888,0 4.59309,-0.73408 6.54043,-2.24302 l 29.56203,-22.996087 c 2.24812,-1.75364 3.6857,-4.27194 4.03744,-7.10121 0.35175,-2.82417 -0.418,-5.62285 -2.16653,-7.87097 -2.75792,-3.55316 -7.43769,-4.89897 -11.60765,-3.59394 L 98.31991,21.368988 C 100.60883,17.657802 100.47628,12.804715 97.71327,9.2566588 95.96474,7.0085378 93.44134,5.5709628 90.61207,5.2192162 87.77772,4.8674692 84.98412,5.6321368 82.736,7.3857748 L 53.17396,30.381864 c -4.64409,3.61433 -5.48522,10.333205 -1.87087,14.977281 2.10027,2.696729 5.24562,4.108808 8.43172,4.108808 1.61088,0 3.22181,-0.38233 4.72055,-1.12661 l 9.72657,12.50996 -71.7156097,52.359307 c -0.99407,0.72898 -1.66697996,1.8505 -1.83519996,3.07397 -0.0562,0.39762 -0.0459,0.79525 0.004,1.19288 0.10208,0.82074 0.40270996,1.61599 0.91247996,2.2838 l 9.2065897,11.83195 c 0.24966,0.31608 0.54039,0.58115 0.85134,0.82074 0.6627,0.50468 1.43758,0.83604 2.2838,0.9278 0.16325,0.0153 0.33148,0.0256 0.49451,0.0256 1.06541,0 2.12065,-0.37213 2.94649,-1.05524 l 68.40713,-56.610867 8.85997,11.38335"
       style="fill:#000000;fill-opacity:1;fill-rule:nonzero;stroke:none;stroke-width:0.509777"
       id="path1340" />
  </g>
</svg>
